<?xml version="1.0" encoding="UTF-8"?>
<svg width="182px" height="34px" viewBox="0 0 182 34" version="1.1" xmlns="http://www.w3.org/2000/svg" xmlns:xlink="http://www.w3.org/1999/xlink">
    <!-- Generator: Sketch 54.1 (76490) - https://sketchapp.com -->
    <title>Group 29</title>
    <desc>Created with Sketch.</desc>
    <defs>
        <polygon id="path-1" points="0.310737871 0.267333102 11.1946186 0.267333102 11.1946186 14.0888932 0.310737871 14.0888932"></polygon>
        <polygon id="path-3" points="0 0.299554041 16.1719192 0.299554041 16.1719192 33.8032171 0 33.8032171"></polygon>
    </defs>
    <g id="FunderMaps" stroke="none" stroke-width="1" fill="none" fill-rule="evenodd">
        <g id="Login" transform="translate(-330.000000, -290.000000)">
            <g id="Group-29" transform="translate(330.000000, 290.000000)">
                <polygon id="Fill-1" fill="#010F3F" points="37.1123723 0.363888036 37.1123723 19.640712 41.1252457 19.640712 41.1252457 11.8512281 47.8128885 11.8512281 47.8128885 8.4417781 41.1252457 8.4417781 41.1252457 4.00960096 49.1765247 4.00960096 49.1765247 0.363888036"></polygon>
                <g id="Group-12" transform="translate(49.626000, 0.060163)" fill="#010F3F">
                    <path d="M12.3947767,19.5804775 L8.93282377,19.5804775 L8.74942334,18.1380871 C8.04099421,19.1083113 6.80861522,19.8426323 4.89405854,19.8426323 C1.74676326,19.8426323 0.0947209296,17.5609151 0.0947209296,13.9939565 L0.0947209296,6.28358653 L3.94972611,6.28358653 L3.94972611,13.7843046 C3.94972611,15.2266951 4.68404707,16.2235304 5.99553997,16.2235304 C7.25453,16.2235304 8.01510239,15.462958 8.53941186,14.6498828 L8.53941186,6.28358653 L12.3947767,6.28358653 L12.3947767,19.5804775 Z" id="Fill-2"></path>
                    <path d="M27.5443717,11.9223587 L27.5443717,19.5805854 L23.6890069,19.5805854 L23.6890069,12.1320106 C23.6890069,10.6633687 22.8759316,9.64064156 21.5122954,9.64064156 C20.3054487,9.64064156 19.492733,10.4012139 18.9943154,11.2139296 L18.9943154,19.5805854 L15.1389506,19.5805854 L15.1389506,6.28369441 L18.6009035,6.28369441 L18.7846635,7.75233631 C19.4402302,6.78175245 20.7254716,6.02118007 22.561274,6.02118007 C25.7873236,6.02118007 27.5443717,8.32914866 27.5443717,11.9223587" id="Fill-4"></path>
                    <path d="M42.7411833,19.5804775 L39.2792304,19.5804775 L39.0695785,18.1118356 C38.3874008,19.0561681 37.1017998,19.8426323 35.1879623,19.8426323 C31.6468955,19.8426323 29.2601726,16.9315999 29.2601726,12.944978 C29.2601726,8.95871559 31.6468955,6.02107218 35.1879623,6.02107218 C37.0759079,6.02107218 38.2302518,6.75539313 38.8592074,7.49007369 L38.8592074,0.30365358 L42.7411833,0.30365358 L42.7411833,19.5804775 Z M33.1417888,12.944978 C33.1417888,15.122049 34.3745274,16.4856851 36.1315755,16.4856851 C37.4696795,16.4856851 38.2823951,15.7776156 38.8592074,14.8332832 L38.8592074,11.0566727 C38.2823951,10.1126999 37.4696795,9.37801933 36.1315755,9.37801933 C34.3745274,9.37801933 33.1417888,10.7420151 33.1417888,12.944978 L33.1417888,12.944978 Z" id="Fill-6"></path>
                    <path d="M57.5173247,12.7616135 L57.5173247,13.9939925 L48.5217132,13.9939925 C48.6004675,15.6988973 49.6494461,16.6691215 51.5640028,16.6691215 C52.875136,16.6691215 53.8978632,16.0923092 54.4750351,15.3054854 L57.1239127,17.456305 C55.7336655,19.056204 53.9766175,19.8426682 51.4852484,19.8426682 C47.315226,19.8426682 44.640097,16.9578873 44.640097,12.9712653 C44.640097,8.98500299 47.3677289,6.02110815 51.3277398,6.02110815 C55.4977622,6.02110815 57.5173247,9.11590055 57.5173247,12.7616135 M48.5217132,11.5551263 L53.7144627,11.5551263 C53.6619599,10.060233 52.7701303,8.93250012 51.1968423,8.93250012 C49.622835,8.93250012 48.6004675,10.0339815 48.5217132,11.5551263" id="Fill-8"></path>
                    <path d="M67.0077217,9.85036535 L66.6930641,9.85036535 C65.1190569,9.85036535 64.1222216,10.6371892 63.3616492,11.607773 L63.3616492,19.5806574 L59.506644,19.5806574 L59.506644,6.28376633 L62.9423454,6.28376633 L63.1786083,8.04081441 C63.8338154,6.96558442 65.1453083,6.02125199 67.0077217,6.02125199 L67.0077217,9.85036535 Z" id="Fill-10"></path>
                </g>
                <polygon id="Fill-13" fill="#010F3F" points="137.555827 0.363564388 127.956433 13.6086718 118.331865 0.363564388 118.2265 0.363564388 118.2265 19.640748 122.239374 19.640748 122.239374 11.5366065 127.851786 19.9029027 128.061798 19.9029027 133.673851 11.5366065 133.673851 19.640748 137.660833 19.640748 137.660833 0.363564388"></polygon>
                <g id="Group-28" transform="translate(0.000000, 0.060163)">
                    <path d="M149.688233,7.77837198 L149.897885,6.28347865 L153.360197,6.28347865 L153.360197,19.5803697 L149.897885,19.5803697 L149.688233,18.1117278 C149.006415,19.0560602 147.721174,19.842884 145.806617,19.842884 C142.26591,19.842884 139.879546,16.931492 139.879546,12.9452297 C139.879546,8.95860771 142.26591,6.02132391 145.806617,6.02132391 C147.721174,6.02132391 149.006415,6.80814773 149.688233,7.77837198 M143.761163,12.9452297 C143.761163,15.1219411 144.993901,16.4855773 146.751309,16.4855773 C148.088334,16.4855773 148.901409,15.7775077 149.478581,14.8331753 L149.478581,11.0565648 C148.901409,10.112592 148.088334,9.37827106 146.751309,9.37827106 C144.993901,9.37827106 143.761163,10.7422668 143.761163,12.9452297" id="Fill-14" fill="#010F3F"></path>
                    <path d="M169.584016,12.9451218 C169.584016,16.9313842 167.197652,19.8427761 163.656945,19.8427761 C161.76864,19.8427761 160.614656,19.1084552 159.958729,18.3741342 L159.958729,25.6126976 L156.103724,25.6126976 L156.103724,6.28373037 L159.565677,6.28373037 L159.749077,7.7782641 C160.457147,6.80803985 161.742388,6.02121603 163.656945,6.02121603 C167.197652,6.02121603 169.584016,8.95849983 169.584016,12.9451218 M159.958729,11.0568166 L159.958729,14.8071756 C160.535901,15.7777595 161.375228,16.485829 162.712613,16.485829 C164.469661,16.485829 165.702399,15.1218332 165.702399,12.9451218 C165.702399,10.7421589 164.469661,9.37816317 162.712613,9.37816317 C161.375228,9.37816317 160.535901,10.1124841 159.958729,11.0568166" id="Fill-16" fill="#010F3F"></path>
                    <g id="Group-20" transform="translate(170.094912, 5.753739)">
                        <mask id="mask-2" fill="white">
                            <use xlink:href="#path-1"></use>
                        </mask>
                        <g id="Clip-19"></g>
                        <path d="M10.9850027,1.71008318 L9.54261223,4.43771511 C8.78203984,3.83429172 7.70680985,3.30998225 6.36942513,3.30998225 C5.24133266,3.30998225 4.63790927,3.65089129 4.63790927,4.35896081 C4.63790927,5.04077889 5.13668653,5.30293363 7.02499177,5.7488484 C9.8310184,6.43102609 11.1946546,7.68965652 11.1946546,9.6829675 C11.1946546,12.3318451 8.99169171,14.0888932 5.39848165,14.0888932 C3.37927885,14.0888932 1.43847073,13.459578 0.310737871,12.4889941 L1.77973938,9.73511076 C2.67120933,10.4960428 3.93019936,11.0728551 5.4250927,11.0728551 C6.60532843,11.0728551 7.31303833,10.7056946 7.31303833,9.94512224 C7.31303833,9.23705272 6.84087212,8.86989225 5.05793222,8.4502289 C2.14654025,7.74215939 0.782904085,6.69318083 0.782904085,4.62111554 C0.782904085,1.97223791 2.85496937,0.267333102 6.36942513,0.267333102 C8.2052275,0.267333102 9.96227557,0.818253619 10.9850027,1.71008318" id="Fill-18" fill="#010F3F" mask="url(#mask-2)"></path>
                    </g>
                    <path d="M16.7855269,19.5925964 C18.7493499,19.3527374 19.8965017,18.228241 20.8264497,16.3917194 L23.2581237,11.7401809 L12.423833,11.7401809 L16.7855269,19.5925964 Z" id="Fill-21" fill="#FFCC69"></path>
                    <path d="M9.83950517,0.303581658 C8.67293457,0.819979741 7.12913445,2.22748816 8.78836896,5.19425988 L10.958967,9.10248715 C15.4177552,9.1129158 21.4476738,9.13521154 21.4476738,9.13521154 C25.0466376,9.13521154 26.8320947,5.2446051 26.8320947,5.2446051 L29.4557997,0.303581658 L9.83950517,0.303581658 Z" id="Fill-23" fill="#28CC8B"></path>
                    <g id="Group-27">
                        <mask id="mask-4" fill="white">
                            <use xlink:href="#path-3"></use>
                        </mask>
                        <g id="Clip-26"></g>
                        <path d="M6.71745442,5.43843418 C4.57706348,1.61075926 7.76859063,0.377661049 8.60180397,0.306458528 C8.34000884,0.292433789 8.0943961,0.303581658 7.8459065,0.305020093 C6.99363389,0.309695006 6.21723873,0.423690962 5.51959786,0.631185177 C4.42099331,0.958069479 3.52376962,1.53703947 2.88941988,2.44145534 C2.63122084,2.80861581 0.724935164,6.67980339 0.724935164,6.67980339 C-0.554192956,9.18663558 -0.0262873954,11.4866928 1.41538385,14.0302051 L12.1011562,33.803289 C12.1011562,33.803289 15.2682299,27.5953642 15.7098294,26.729786 C16.4207758,24.9213139 16.3294352,22.9880576 15.3099445,20.9088001 L6.71745442,5.43843418 Z" id="Fill-25" fill="#17A4EA" mask="url(#mask-4)"></path>
                    </g>
                </g>
            </g>
        </g>
    </g>
</svg>