<?xml version="1.0" encoding="UTF-8"?>
<svg width="235px" height="172px" viewBox="0 0 235 172" version="1.1" xmlns="http://www.w3.org/2000/svg" xmlns:xlink="http://www.w3.org/1999/xlink">
    <!-- Generator: Sketch 54.1 (76490) - https://sketchapp.com -->
    <title>Upload illustration</title>
    <desc>Created with Sketch.</desc>
    <g id="FunderMaps" stroke="none" stroke-width="1" fill="none" fill-rule="evenodd">
        <g id="Dashboard" transform="translate(-790.000000, -130.000000)">
            <g id="Upload" transform="translate(280.000000, 100.000000)">
                <g id="Upload-illustration" transform="translate(509.036441, 29.500000)">
                    <g id="Group-3">
                        <g id="Item-1" transform="translate(0.963559, 0.000000)">
                            <g id="Illustration---Upload">
                                <g id="Cloud" transform="translate(18.000000, 0.000000)">
                                    <path d="M189.15348,20.843856 C189.601013,17.7382662 189.236243,14.3796507 187.510481,10.8493392 C184.855934,5.42735903 179.595884,1.43316696 173.523531,0.656016473 C166.148427,-0.283793424 159.499798,3.10494419 155.827572,8.59319301 C154.895722,9.9878468 152.940063,10.204726 151.539222,9.2619039 C149.497734,7.88231116 147.039366,7.06600192 144.369493,7.06298971 C141.095756,7.06298971 137.687146,8.31004515 135.421891,10.63246 C131.568813,14.5754445 131.204043,18.1328659 131.587205,21.0516986 C131.758861,22.3710471 131.007864,23.6211147 129.824659,24.2687401 C124.920184,26.9496081 121.67097,32.1848312 122.026544,38.1731071 C122.501665,46.2066744 129.775614,52.2431456 137.963022,52.2431456 L183.593031,52.2431456 C191.142858,52.2431456 197.981535,47.0741912 199.177001,39.7484935 C200.308095,32.7963101 196.550041,26.6303137 190.775022,23.8892015 C189.610209,23.3349547 188.972627,22.1059725 189.15348,20.843856 Z" fill="#DBE5EC"></path>
                                    <path d="M38.9544313,41.8984456 C39.2140367,40.0969532 39.0024405,38.1486855 38.0013593,36.1008202 C36.4615081,32.9556347 33.4102554,30.6386814 29.8878012,30.1878714 C25.6096462,29.6427059 21.7529056,31.6084469 19.6227187,34.7920736 C19.0821704,35.6010852 17.9477303,35.7268926 17.1351298,35.1799798 C15.9509024,34.3797048 14.5248508,33.9061797 12.9761089,33.9044323 C11.0770775,33.9044323 9.09980891,34.627825 7.78577878,35.9750128 C5.55068287,38.2622616 5.33908668,40.3258528 5.56135159,42.019011 C5.66092627,42.7843395 5.22528705,43.5094795 4.53893302,43.8851544 C1.6939422,45.440274 -0.19086421,48.4771253 0.0153976238,51.950808 C0.291006109,56.6109246 4.51048311,60.1125645 9.25983965,60.1125645 L35.7289229,60.1125645 C40.1084307,60.1125645 44.0754147,57.1141543 44.7688812,52.8646592 C45.4250072,48.8318324 43.245033,45.2550575 39.8950563,43.6649915 C39.219371,43.3434836 38.8495222,42.6305749 38.9544313,41.8984456 Z" fill="#E0E9EF"></path>
                                    <path d="M151.18134,143.946551 C151.582409,141.171886 151.25551,138.171157 149.708924,135.017028 C147.329982,130.172802 142.616052,126.604223 137.174154,125.909883 C130.564763,125.070218 124.606421,128.097859 121.31546,133.001292 C120.480358,134.247334 118.727743,134.441103 117.472343,133.598746 C115.642811,132.36616 113.43968,131.636835 111.047004,131.634144 C108.113159,131.634144 105.058444,132.748315 103.028377,134.823259 C99.5753411,138.346087 99.2484426,141.524438 99.5918233,144.132246 C99.7456579,145.311008 99.0726317,146.427871 98.0122721,147.006487 C93.6169991,149.401687 90.7051307,154.079056 91.023788,159.429234 C91.4495801,166.606762 97.9683194,172 105.305678,172 L146.198199,172 C152.964173,172 159.092831,167.381838 160.164179,160.836751 C161.177839,154.625377 157.809961,149.116416 152.634527,146.667391 C151.59065,146.172203 151.019264,145.074179 151.18134,143.946551 Z" fill="#E0E9EF"></path>
                                </g>
                                <path d="M56.0401608,86.8898842 C56.6651658,87.5148817 57.2008758,88.3630867 57.6473058,89.4345217 C58.0937358,90.5059567 58.3169508,91.4880892 58.3169508,92.3809492 L58.3169508,130.952381 C58.3169508,131.845243 58.0044558,132.604164 57.3794508,133.229167 C56.7544458,133.85417 55.9955283,134.166667 55.1026608,134.166667 L10.1026638,134.166667 C9.2098023,134.166667 8.45088105,133.85417 7.8258783,133.229167 C7.20087517,132.604164 6.8883783,131.845243 6.8883783,130.952381 L6.8883783,77.3809492 C6.8883783,76.4880892 7.20087517,75.7291717 7.8258783,75.1041667 C8.45088105,74.4791617 9.2098023,74.1666667 10.1026638,74.1666667 L40.1026608,74.1666667 C40.9955283,74.1666667 41.9776608,74.3898817 43.0490958,74.8363117 C44.1205233,75.2827417 44.9687358,75.8184517 45.5937333,76.4434492 L56.0401608,86.8898842 Z M41.1740958,78.7202392 L41.1740958,91.3095217 L53.7633783,91.3095217 C53.5401633,90.6621967 53.2946283,90.2046142 53.0267733,89.9367592 L42.5468583,79.4568442 C42.2790033,79.1889892 41.8214208,78.9434542 41.1740958,78.7202392 Z M54.0312333,129.880952 L54.0312333,95.5952392 L40.1026608,95.5952392 C39.2098008,95.5952392 38.4508833,95.2827442 37.8258783,94.6577392 C37.2008733,94.0327342 36.8883783,93.2738167 36.8883783,92.3809492 L36.8883783,78.4523842 L11.1740928,78.4523842 L11.1740928,129.880952 L54.0312333,129.880952 Z M36.8214108,110.026042 C37.5580233,110.606399 38.4955158,111.231397 39.6339108,111.901042 C40.9508883,111.744794 42.2566758,111.666667 43.5513258,111.666667 C46.8325908,111.666667 48.8080158,112.213537 49.4776608,113.307292 C49.8348108,113.798369 49.8571308,114.378719 49.5446283,115.048364 C49.5446283,115.070684 49.5334683,115.093004 49.5111483,115.115324 C49.4888283,115.137652 49.4665008,115.159972 49.4441808,115.182292 L49.4441808,115.215772 C49.3102533,116.063992 48.5178483,116.488094 47.0669508,116.488094 C45.9955158,116.488094 44.7120483,116.264887 43.2165033,115.818449 C41.7209583,115.372019 40.2700833,114.780509 38.8638258,114.043897 C33.9307608,114.579614 29.5558083,115.505947 25.7388258,116.822917 C22.3236258,122.671162 19.6227633,125.595239 17.6361483,125.595239 C17.3013258,125.595239 16.9888233,125.517112 16.6986483,125.360864 L15.8950758,124.959074 C15.8727558,124.936754 15.8057883,124.880954 15.6941808,124.791667 C15.4709658,124.568452 15.4040058,124.166669 15.4932858,123.586312 C15.6941808,122.693452 16.3191783,121.672252 17.3682858,120.522697 C18.4174008,119.373134 19.8906033,118.296134 21.7879308,117.291667 C22.1004333,117.090772 22.3571283,117.157739 22.5580233,117.492562 C22.6026633,117.537202 22.6249833,117.581842 22.6249833,117.626489 C23.7857058,115.729154 24.9798933,113.530522 26.2075758,111.030509 C27.7254408,107.994779 28.8861408,105.070702 29.6897208,102.258187 C29.1540033,100.427819 28.8136008,98.6477017 28.6685133,96.9177817 C28.5234258,95.1878617 28.5959658,93.7648867 28.8861483,92.6488117 C29.1316833,91.7559517 29.6004258,91.3095217 30.2923983,91.3095217 L30.9955233,91.3095217 L31.0290033,91.3095217 C31.5424008,91.3095217 31.9330233,91.4769292 32.2008783,91.8117592 C32.6026683,92.2805092 32.7031083,93.0394267 32.5022208,94.0885417 C32.4575733,94.2224692 32.4129333,94.3117567 32.3682858,94.3563967 C32.3906133,94.4233642 32.4017733,94.5126517 32.4017733,94.6242592 L32.4017733,95.6287192 C32.3571258,98.3742667 32.2008783,100.517107 31.9330233,102.057292 C33.1607058,105.718027 34.7901558,108.374249 36.8214108,110.026042 Z M17.5357008,123.787199 C18.6964233,123.251489 20.2254258,121.488112 22.1227533,118.497022 C20.9843583,119.389889 20.0077983,120.327374 19.1930658,121.309522 C18.3783333,122.291669 17.8258833,123.117554 17.5357008,123.787199 Z M30.8615958,92.9836342 C30.5267658,93.9211342 30.5044458,95.3943367 30.7946283,97.4032717 C30.8169483,97.2470242 30.8950758,96.7559542 31.0290033,95.9300617 C31.0290033,95.8630942 31.1071308,95.3831917 31.2633783,94.4903242 C31.2856983,94.4010442 31.3303458,94.3117567 31.3973058,94.2224692 C31.3749858,94.2001492 31.3638258,94.1778292 31.3638258,94.1555092 C31.3415058,94.1108617 31.3303458,94.0773817 31.3303458,94.0550617 C31.3080183,93.5639842 31.1629308,93.1622017 30.8950758,92.8496992 C30.8950758,92.8720267 30.8839158,92.8943467 30.8615958,92.9166667 L30.8615958,92.9836342 Z M26.7098058,115.115324 C29.7232158,113.909962 32.8928283,113.005957 36.2187333,112.403272 C36.1740933,112.380952 36.0290058,112.274924 35.7834708,112.085197 C35.5379283,111.895462 35.3593608,111.744794 35.2477533,111.633187 C33.5513133,110.137642 32.1339183,108.173377 30.9955233,105.740324 C30.3928383,107.659979 29.4665058,109.858619 28.2165033,112.336312 C27.5468583,113.586314 27.0446283,114.512647 26.7098058,115.115324 Z M48.3392733,114.579614 C47.8035558,114.043897 46.2410733,113.776042 43.6517733,113.776042 C45.3482058,114.401047 46.7321208,114.713542 47.8035558,114.713542 C48.1160583,114.713542 48.3169458,114.702382 48.4062333,114.680062 C48.4062333,114.657742 48.3839133,114.624254 48.3392733,114.579614 Z" id="Fill-1" fill="#DBE5EC" transform="translate(32.602665, 104.166667) rotate(-15.000000) translate(-32.602665, -104.166667) "></path>
                                <path d="M230.263403,86.8898842 C230.888408,87.5148817 231.424118,88.3630867 231.870548,89.4345217 C232.316978,90.5059567 232.540193,91.4880892 232.540193,92.3809492 L232.540193,130.952381 C232.540193,131.845243 232.227698,132.604164 231.602693,133.229167 C230.977688,133.85417 230.218771,134.166667 229.325903,134.166667 L184.325906,134.166667 C183.433045,134.166667 182.674123,133.85417 182.049121,133.229167 C181.424118,132.604164 181.111621,131.845243 181.111621,130.952381 L181.111621,77.3809492 C181.111621,76.4880892 181.424118,75.7291717 182.049121,75.1041667 C182.674123,74.4791617 183.433045,74.1666667 184.325906,74.1666667 L214.325903,74.1666667 C215.218771,74.1666667 216.200903,74.3898817 217.272338,74.8363117 C218.343766,75.2827417 219.191978,75.8184517 219.816976,76.4434492 L230.263403,86.8898842 Z M215.397338,78.7202392 L215.397338,91.3095217 L227.986621,91.3095217 C227.763406,90.6621967 227.517871,90.2046142 227.250016,89.9367592 L216.770101,79.4568442 C216.502246,79.1889892 216.044663,78.9434542 215.397338,78.7202392 Z M228.254476,129.880952 L228.254476,95.5952392 L214.325903,95.5952392 C213.433043,95.5952392 212.674126,95.2827442 212.049121,94.6577392 C211.424116,94.0327342 211.111621,93.2738167 211.111621,92.3809492 L211.111621,78.4523842 L185.397335,78.4523842 L185.397335,129.880952 L228.254476,129.880952 Z M198.957601,99.8809492 L198.957601,103.463542 L195.944213,103.463542 L199.258943,118.128719 C199.370551,118.575149 199.448671,119.088539 199.493318,119.668897 L199.560278,120.372022 L199.694213,120.372022 L199.828141,119.668897 C199.850461,119.534969 199.889521,119.295014 199.945328,118.949032 C200.001128,118.603049 200.051356,118.329614 200.095996,118.128719 L204.917423,99.8809492 L208.734391,99.8809492 L213.555818,118.128719 C213.600458,118.329614 213.656266,118.608629 213.723226,118.965772 C213.790193,119.322922 213.834833,119.557289 213.857153,119.668897 C213.857153,119.713544 213.868321,119.786084 213.890641,119.886532 C213.912961,119.986979 213.929701,120.076267 213.940861,120.154387 C213.952021,120.232514 213.957601,120.305062 213.957601,120.372022 L214.091528,120.372022 L214.158496,119.668897 C214.203136,119.088539 214.281263,118.575149 214.392871,118.128719 L217.707601,103.463542 L214.694213,103.463542 L214.694213,99.8809492 L224.738851,99.8809492 L224.738851,103.463542 L222.395101,103.463542 L216.904028,125.595239 L211.580371,125.595239 L207.294653,109.356397 C207.227693,109.155502 207.166306,108.865327 207.110506,108.485864 C207.054698,108.106394 207.015638,107.883187 206.993318,107.816219 L206.892871,107.012647 L206.758943,107.012647 C206.758943,107.191222 206.736623,107.459077 206.691976,107.816219 C206.625016,108.396577 206.513408,108.909967 206.357153,109.356397 L202.071443,125.595239 L196.747778,125.595239 L191.256713,103.463542 L188.912963,103.463542 L188.912963,99.8809492 L198.957601,99.8809492 Z" id="Fill-1" fill="#DBE5EC" transform="translate(206.825907, 104.166667) rotate(-345.000000) translate(-206.825907, -104.166667) "></path>
                                <polygon id="Rectangle" fill="#FFFFFF" points="83 52.5 133.586914 52.5 157 74.8642578 157 138.5 83 138.5"></polygon>
                                <g id="Add-invoice" transform="translate(100.714286, 86.760504)">
                                    <circle id="Base" fill="#17A4EA" cx="18.9579832" cy="18.9579832" r="18.9579832"></circle>
                                    <path d="M20.1428571,17.7731092 L23.8823478,17.7731092 C24.4346354,17.7731092 24.8823529,18.2300205 24.8823529,18.764365 L24.8823529,19.1516014 C24.8823529,19.6990568 24.4323369,20.1428571 23.8823478,20.1428571 L20.1428571,20.1428571 L20.1428571,23.8823478 C20.1428571,24.4346354 19.6859459,24.8823529 19.1516014,24.8823529 L18.764365,24.8823529 C18.2169096,24.8823529 17.7731092,24.4323369 17.7731092,23.8823478 L17.7731092,20.1428571 L14.0336186,20.1428571 C13.481331,20.1428571 13.0336134,19.6859459 13.0336134,19.1516014 L13.0336134,18.764365 C13.0336134,18.2169096 13.4836295,17.7731092 14.0336186,17.7731092 L17.7731092,17.7731092 L17.7731092,14.0336186 C17.7731092,13.481331 18.2300205,13.0336134 18.764365,13.0336134 L19.1516014,13.0336134 C19.6990568,13.0336134 20.1428571,13.4836295 20.1428571,14.0336186 L20.1428571,17.7731092 Z" id="Add-icon" fill="#FFFFFF"></path>
                                </g>
                            </g>
                        </g>
                        <path d="M156.681082,68.4057047 C157.658914,69.3835246 158.497042,70.7105567 159.19549,72.3868362 C159.893938,74.0631157 160.243162,75.5996799 160.243162,76.9965755 L160.243162,137.342281 C160.243162,138.739179 159.754257,139.926525 158.776426,140.904353 C157.798594,141.882182 156.611254,142.371089 155.214347,142.371089 L84.8110346,142.371089 C83.4141365,142.371089 82.2267905,141.882182 81.2489623,140.904353 C80.2711336,139.926525 79.7822266,138.739179 79.7822266,137.342281 L79.7822266,53.5288033 C79.7822266,52.1319076 80.2711336,50.9445674 81.2489623,49.9667358 C82.2267905,48.9889041 83.4141365,48.5 84.8110346,48.5 L131.746574,48.5 C133.143482,48.5 134.680046,48.8492239 136.356325,49.5476718 C138.032593,50.2461196 139.359637,51.0842476 140.337457,52.0620675 L156.681082,68.4057047 Z M133.422854,55.6241468 L133.422854,75.3203078 L153.119015,75.3203078 C152.769791,74.307556 152.385647,73.5916599 151.966583,73.1725959 L135.570566,56.7765787 C135.151502,56.3575147 134.435606,55.9733707 133.422854,55.6241468 Z M153.538079,135.666011 L153.538079,82.0253906 L131.746574,82.0253906 C130.349679,82.0253906 129.162338,81.5364865 128.184507,80.5586548 C127.206675,79.5808231 126.717771,78.3934829 126.717771,76.9965755 L126.717771,55.2050828 L86.4873047,55.2050828 L86.4873047,135.666011 L153.538079,135.666011 Z" id="Fill-1-Copy" fill="#3D5372" transform="translate(120.012694, 95.435544) rotate(-360.000000) translate(-120.012694, -95.435544) "></path>
                    </g>
                </g>
            </g>
        </g>
    </g>
</svg>