<?xml version="1.0" standalone="no"?>
<!DOCTYPE svg PUBLIC "-//W3C//DTD SVG 20010904//EN"
 "http://www.w3.org/TR/2001/REC-SVG-20010904/DTD/svg10.dtd">
<svg version="1.0" xmlns="http://www.w3.org/2000/svg"
 width="944.000000pt" height="944.000000pt" viewBox="0 0 944.000000 944.000000"
 preserveAspectRatio="xMidYMid meet">
<metadata>
Created by potrace 1.11, written by Peter Selinger 2001-2013
</metadata>
<g transform="translate(0.000000,944.000000) scale(0.100000,-0.100000)"
fill="#000000" stroke="none">
<path d="M2468 9435 c-2 -2 -28 -6 -58 -9 -181 -21 -389 -84 -555 -169 -44
-23 -82 -44 -85 -47 -3 -4 -12 -9 -20 -12 -29 -11 -182 -130 -233 -181 -111
-112 -140 -155 -238 -342 -28 -55 -55 -101 -60 -103 -5 -2 -9 -11 -9 -21 0 -9
-4 -21 -9 -26 -9 -10 -42 -73 -146 -270 -32 -60 -62 -116 -68 -122 -5 -7 -6
-13 -1 -13 5 0 4 -4 -2 -8 -6 -4 -46 -74 -90 -157 -43 -82 -93 -177 -111 -210
-17 -33 -44 -85 -60 -115 -15 -30 -31 -56 -35 -58 -4 -2 -8 -11 -8 -21 0 -9
-6 -25 -14 -36 -31 -46 -102 -281 -123 -411 -10 -60 -9 -404 1 -459 19 -109
30 -157 52 -240 14 -49 26 -97 29 -105 2 -8 17 -53 34 -100 18 -47 33 -93 36
-102 2 -10 10 -30 19 -45 8 -16 20 -44 27 -63 20 -56 231 -485 240 -488 5 -2
9 -12 9 -22 0 -10 3 -20 8 -22 4 -1 18 -25 32 -53 14 -27 43 -84 66 -125 48
-88 144 -270 188 -355 17 -33 33 -62 36 -65 5 -5 95 -178 160 -305 19 -38 37
-72 40 -75 5 -5 60 -109 122 -230 18 -36 35 -67 38 -70 3 -3 21 -36 41 -75 20
-38 51 -97 69 -130 18 -33 44 -82 58 -110 13 -27 32 -58 40 -67 8 -10 12 -18
7 -18 -4 0 0 -11 9 -25 9 -14 37 -64 62 -112 26 -49 64 -121 85 -160 139 -261
212 -398 251 -473 18 -36 35 -67 38 -70 3 -3 20 -34 38 -70 19 -36 58 -110 87
-165 29 -55 66 -125 81 -155 16 -30 32 -56 37 -58 4 -2 7 -11 7 -21 0 -9 5
-22 10 -27 6 -6 25 -39 43 -75 19 -35 49 -93 69 -129 38 -69 96 -179 173 -325
26 -49 52 -96 57 -102 6 -7 7 -13 3 -13 -5 0 -1 -8 7 -17 8 -10 34 -56 58
-103 25 -47 57 -107 72 -135 15 -27 44 -84 66 -125 21 -41 58 -111 82 -155 24
-44 57 -107 74 -140 17 -33 33 -62 36 -65 11 -11 30 -51 30 -65 0 -8 3 -15 8
-15 4 0 12 -10 18 -23 29 -61 213 -407 225 -423 5 -6 7 -13 4 -16 -3 -3 1 -11
10 -18 8 -7 15 -19 15 -26 0 -8 5 -14 10 -14 6 0 10 -8 10 -18 0 -10 4 -22 9
-28 5 -5 30 -49 57 -99 26 -49 70 -130 97 -180 26 -50 51 -98 54 -108 3 -10
10 -16 15 -15 5 2 35 53 66 113 31 61 60 111 64 113 5 2 8 12 8 22 0 10 4 20
8 22 4 2 21 30 37 63 16 33 37 72 47 86 9 14 15 29 11 33 -3 3 -1 6 5 6 7 0
12 9 12 19 0 11 4 21 9 23 5 2 17 21 28 43 18 37 56 108 163 310 24 44 66 125
95 180 29 55 69 132 90 170 86 161 157 294 187 355 18 36 35 67 38 70 3 3 21
37 41 75 20 39 68 131 108 206 59 114 136 284 145 324 12 49 19 72 23 85 3 8
7 20 9 27 1 6 7 35 14 65 31 144 34 392 5 518 -3 14 -7 40 -10 58 -2 18 -6 36
-9 40 -3 5 -7 21 -10 36 -7 38 -35 127 -47 148 -5 10 -9 22 -9 27 0 30 -150
333 -339 686 -100 185 -121 225 -174 325 -30 58 -68 130 -84 160 -15 30 -30
57 -33 60 -3 3 -19 34 -37 70 -18 36 -54 106 -81 155 -27 50 -71 133 -98 185
-27 52 -51 97 -54 100 -3 3 -23 41 -45 85 -22 44 -42 82 -45 85 -3 3 -20 34
-38 70 -18 36 -51 99 -73 140 -22 41 -58 110 -80 152 -22 43 -44 80 -50 83 -5
4 -9 14 -9 24 0 10 -7 24 -15 31 -8 7 -13 16 -10 20 3 5 1 11 -4 14 -5 3 -21
29 -36 58 -37 70 -103 195 -152 288 -22 41 -64 120 -93 175 -29 55 -71 134
-93 175 -22 41 -52 98 -65 125 -14 28 -34 62 -44 78 -11 15 -17 27 -14 27 3 0
-8 22 -24 49 -17 26 -30 51 -30 55 0 3 -11 24 -24 45 -14 21 -23 41 -20 43 2
3 -2 11 -11 18 -8 7 -15 18 -15 24 0 6 -11 28 -25 49 -14 20 -23 37 -19 37 3
0 2 6 -4 13 -6 7 -32 53 -57 102 -26 50 -67 126 -90 170 -24 44 -64 121 -90
170 -45 85 -60 113 -147 275 -109 200 -245 467 -265 516 -42 107 -69 197 -78
259 -2 11 -6 34 -9 50 -8 41 -9 224 -1 255 3 14 9 39 12 55 3 17 9 38 14 48 5
9 7 17 3 17 -3 0 1 11 10 25 9 14 14 25 11 25 -8 0 32 75 73 139 47 72 225
251 250 251 5 0 17 8 28 18 23 20 44 32 125 73 32 17 59 32 59 35 0 5 -467 4
-472 -1z"/>
<path d="M3436 9423 c-51 -18 -152 -87 -194 -132 -105 -114 -189 -273 -217
-411 -2 -8 -4 -15 -5 -15 -4 0 -22 -174 -22 -210 0 -60 16 -187 32 -255 28
-118 27 -116 40 -140 6 -12 13 -29 15 -38 1 -9 15 -43 29 -74 14 -31 31 -67
36 -80 6 -13 30 -59 53 -103 24 -44 74 -138 111 -210 38 -71 85 -161 106 -200
20 -38 59 -113 86 -165 27 -52 51 -97 54 -100 3 -3 34 -63 70 -135 36 -71 67
-132 70 -135 3 -3 16 -27 30 -55 l25 -50 1505 -2 c828 -1 1525 2 1550 7 69 13
124 22 138 23 6 0 12 4 12 9 0 5 4 7 10 3 13 -8 192 53 275 94 39 19 72 35 75
36 5 1 31 16 105 64 250 160 514 451 655 721 18 36 38 68 44 72 6 4 8 8 4 8
-3 0 15 39 41 88 26 48 60 114 76 147 17 33 32 62 35 65 3 3 19 32 35 65 17
33 32 62 35 65 3 3 19 32 35 65 15 33 31 62 34 65 3 3 25 43 49 90 23 47 63
123 88 170 25 47 84 159 132 250 47 91 89 167 94 168 4 2 8 11 8 21 0 9 4 21
9 27 5 5 32 53 60 107 l51 97 -2718 -1 c-2312 -1 -2723 -4 -2756 -16z"/>
<path d="M4080 6332 c-12 -4 -14 -32 -2 -32 5 0 14 -16 22 -35 8 -19 17 -35
22 -35 4 0 8 -7 8 -15 0 -8 14 -37 30 -66 17 -28 46 -81 64 -118 18 -36 47
-91 64 -121 17 -30 49 -89 69 -130 21 -41 40 -77 43 -80 3 -3 19 -32 36 -65
17 -33 47 -89 66 -125 46 -85 140 -263 170 -320 12 -25 26 -46 31 -48 4 -2 7
-9 7 -15 0 -7 28 -61 61 -122 33 -60 62 -115 63 -121 1 -7 7 -18 13 -25 6 -8
33 -57 60 -109 83 -157 144 -273 168 -315 12 -22 55 -103 95 -180 41 -77 77
-141 82 -143 4 -2 8 -11 8 -20 0 -9 9 -28 20 -42 11 -14 20 -30 20 -36 0 -11
21 -9 130 11 38 6 135 33 160 42 8 4 17 7 20 8 3 1 19 7 35 14 17 6 44 17 60
23 26 10 111 54 180 92 21 12 73 46 90 59 88 67 122 93 131 102 110 101 118
110 254 282 27 34 88 142 196 348 26 50 60 113 75 140 15 28 37 70 50 95 12
25 27 48 33 52 6 4 7 8 3 8 -5 0 0 15 11 33 20 32 56 98 143 263 26 51 65 123
85 160 20 38 58 110 84 159 26 50 60 115 77 145 71 129 143 269 143 277 0 7
-3157 12 -3180 5z"/>
</g>
</svg>
