<svg xmlns="http://www.w3.org/2000/svg" width="640" height="118"><rect id="backgroundrect" width="100%" height="100%" x="0" y="0" fill="none" stroke="none"/><g class="currentLayer" style=""><title>Layer 1</title><path fill="#191e3c" d="M134.89538617134093,24.456540298461903 v67.9 h14.2 v-27.4 h23.5 v-12 h-23.5 v-15.6 h30.5 v-12.9 zm88.1,67.9 h-12.2 l-0.6000000000000002,-5.1 c-2.5,3.4 -6.8,6 -13.6,6 c-11.1,0 -16.9,-8 -16.9,-20.6 v-27.2 h13.6 v26.4 c0,5.1 2.6,8.6 7.2,8.6 c4.4,0 7.1,-2.7 9,-5.5 v-29.5 h13.6 v46.9 zm50.7,-26.9 v27 h-13.6 v-26.2 c0,-5.2 -2.9,-8.8 -7.7,-8.8 c-4.3,0 -7.1,2.7 -8.9,5.5 v29.5 h-13.6 v-46.8 h12.2 l0.6000000000000002,5.2 c2.3,-3.4 6.8,-6.1 13.3,-6.1 c11.5,-0.1 17.7,8 17.7,20.7 m138.3,-7.3 h-1.1 c-5.5,0 -9.1,2.8 -11.7,6.2 v28.1 h-13.6 v-46.8 H397.69538617134094 l0.8,6.2 c2.3,-3.8 6.9,-7.1 13.5,-7.1 v13.4 zm75.3,-33.7 l-33.8,46.6 l-33.9,-46.6 h-0.4 v67.9 h14.1 V63.756540298461914 l19.8,29.5 h0.8 l19.7,-29.5 v28.6 H487.69538617134094 v-67.9 zm150.1,25.2 l-5.1,9.6 c-2.7,-2.1 -6.5,-4 -11.2,-4 c-4,0 -6.1,1.2 -6.1,3.7 c0,2.4 1.8,3.3 8.4,4.9 c9.9,2.4 14.7,6.8 14.7,13.9 c0,9.3 -7.8,15.5 -20.4,15.5 c-7.1,0 -14,-2.2 -17.9,-5.6 l5.2,-9.7 c3.1,2.7 7.6,4.7 12.8,4.7 c4.2,0 6.7,-1.3 6.7,-4 c0,-2.5 -1.7000000000000002,-3.8 -7.9,-5.3 c-10.3,-2.5 -15.1,-6.2 -15.1,-13.5 c0,-9.3 7.3,-15.3 19.7,-15.3 c6.4,0.1 12.6,2 16.2,5.1 m-343.5,19.4 c0,7.7 4.3,12.5 10.5,12.5 c4.7,0 7.6,-2.5 9.6,-5.8 v-13.3 c-2,-3.3 -4.9,-5.9 -9.6,-5.9 c-6.2,-0.1 -10.5,4.7 -10.5,12.5 m33.8,23.3 h-12.2 l-0.7000000000000002,-5.2 c-2.4,3.3 -6.9,6.1 -13.7,6.1 c-12.5,0 -20.9,-10.3 -20.9,-24.3 s8.4,-24.4 20.9,-24.4 c6.7,0 10.7,2.6 12.9,5.2 v-25.3 H327.69538617134094 v67.9 zm19.9,-28.2 h18.3 c-0.2,-5.3 -3.3,-9.2 -8.9,-9.2 c-5.5,-0.1 -9.1,3.8 -9.4,9.2 m31.7,4.2 v4.3 h-31.7 c0.3000000000000001,6 4,9.4 10.7,9.4 c4.6,0 8.2,-2 10.3,-4.8 l9.3,7.6 c-4.9,5.6 -11.1,8.4 -19.9,8.4 c-14.7,0 -24.1,-10.2 -24.1,-24.2 s9.6,-24.5 23.6,-24.5 c14.7,0.1 21.8,11 21.8,23.8 m128.4,0.7000000000000002 c0,7.7 4.3,12.5 10.5,12.5 c4.7,0 7.6,-2.5 9.6,-5.8 v-13.3 c-2,-3.3 -4.9,-5.9 -9.6,-5.9 c-6.2,-0.1 -10.5,4.7 -10.5,12.5 m20.8,-18.2 l0.7000000000000002,-5.3 h12.2 v46.8 h-12.2 l-0.7000000000000002,-5.2 c-2.4,3.3 -6.9,6.1 -13.7,6.1 c-12.5,0 -20.9,-10.3 -20.9,-24.3 s8.4,-24.4 20.9,-24.4 c6.8,0.1 11.3,2.8 13.7,6.3 m33.8,11.5 v13.2 c2,3.4 5,5.9 9.7,5.9 c6.2,0 10.5,-4.8 10.5,-12.5 c0,-7.8 -4.3,-12.6 -10.5,-12.6 c-4.7,0.1 -7.7,2.7 -9.7,6 m33.9,6.7 c0,14 -8.4,24.3 -20.9,24.3 c-6.7,0 -10.7,-2.6 -13,-5.2 v25.5 H548.6953861713409 v-68.1 h12.2 l0.6000000000000002,5.3 c2.5,-3.4 7,-6.2 13.8,-6.2 c12.5,0 20.9,10.3 20.9,24.4 " id="svg_1" class=""/><path fill="#28cc8b" d="M32.82582092285156,17.600018310546886 l7.4,14.1 h35.9 c12.1,0 18,-11.9 18,-11.9 l10.4,-19.7 H37.32582092285156 c-3.5,-0.1 -9.9,7.2 -4.5,17.5 z" id="svg_2" class=""/><path fill="#17a4ea" d="M54.625820922851574,74.10001831054689 l-29.9,-56.5 c-5.7,-10.7 1.4,-15.7 5.6,-17.6 h-4.2 c-6.7,0 -13.5,3.3 -16.2,8.5 c-0.2,0.4 -7.6,14.2 -7.6,14.2 c-4.7,8.9 -1.6,17.2 3.3,26.4 l36.5,68.7 s11.3,-21.4 12.9,-24.4 c3.2,-6.1 3.4,-12.1 -0.4,-19.3 z" id="svg_3" class=""/><path fill="#ffcc69" d="M84.02582092285155,38.800018310546875 h-40 l15.5,29.1 c6,-0.7000000000000001 11.5,-4.6 14.3,-9.9 c0,0.1 10.2,-19.2 10.2,-19.2 z" id="svg_4" class=""/></g></svg>