<?xml version="1.0" encoding="UTF-8"?>
<svg width="30px" height="30px" viewBox="0 0 30 30" version="1.1" xmlns="http://www.w3.org/2000/svg" xmlns:xlink="http://www.w3.org/1999/xlink">
    <!-- Generator: Sketch 55.1 (78136) - https://sketchapp.com -->
    <title>Disapporove Icon</title>
    <desc>Created with Sketch.</desc>
    <g id="FunderMaps" stroke="none" stroke-width="1" fill="none" fill-rule="evenodd">
        <g id="Rapport-Fout" transform="translate(-515.000000, -86.000000)">
            <g id="Status-Bar" transform="translate(251.000000, 71.000000)">
                <g id="Afkeuren" transform="translate(264.000000, 15.000000)">
                    <g id="Disapporove-Icon">
                        <rect id="Base" fill="#FF4E4E" x="0" y="0" width="30" height="30" rx="15"></rect>
                        <path d="M16.3145225,17.7173672 L15.0066672,16.409512 L13.6938125,17.7213668 C13.3068554,18.1093238 12.677925,18.1093238 12.2909678,17.7213668 C11.9030107,17.3344096 11.9030107,16.7064791 12.2909678,16.318522 L13.6028226,15.0056673 L12.2909678,13.6938125 C11.9030107,13.3058555 11.9030107,12.677925 12.2909678,12.2909678 C12.677925,11.9030107 13.3068554,11.9030107 13.6938125,12.2909678 L15.0066672,13.6028226 L16.3145225,12.2949674 C16.7014796,11.9070103 17.3294101,11.9070103 17.7173672,12.2949674 C18.1043244,12.6829244 18.1043244,13.3108549 17.7173672,13.6978121 L16.409512,15.0066672 L17.7173672,16.3145225 C18.1053243,16.7014796 18.1053243,17.33041 17.7173672,17.7173672 C17.33041,18.1043244 16.7014796,18.1043244 16.3145225,17.7173672 Z" id="Cross" fill="#FFFFFF"></path>
                    </g>
                </g>
            </g>
        </g>
    </g>
</svg>