<?xml version="1.0" encoding="UTF-8"?>
<svg width="18px" height="14px" viewBox="0 0 18 14" version="1.1" xmlns="http://www.w3.org/2000/svg" xmlns:xlink="http://www.w3.org/1999/xlink">
    <!-- Generator: Sketch 54.1 (76490) - https://sketchapp.com -->
    <title>App-icon</title>
    <desc>Created with Sketch.</desc>
    <g id="FunderMaps" stroke="none" stroke-width="1" fill="none" fill-rule="evenodd">
        <g id="Alle-rapporten" transform="translate(-28.000000, -438.000000)">
            <g id="Screen-Structure">
                <g id="Left-Navigation-White" transform="translate(0.000000, 70.000000)">
                    <g id="Menu" transform="translate(0.000000, 15.000000)">
                        <g id="Menu-Items">
                            <g id="App-icon" transform="translate(28.500000, 352.000000)">
                                <g id="Filled_Icon" transform="translate(0.000000, 1.416667)" fill="#7F8FA4" fill-rule="nonzero">
                                    <g id="Group">
                                        <path d="M17,3.54166667 L17,1.77083333 C17,0.794041667 16.2059583,0 15.2291667,0 L1.77083333,0 C0.794041667,0 0,0.794041667 0,1.77083333 L0,3.54166667 L17,3.54166667 Z M7.08333333,1.41666667 C7.47433333,1.41666667 7.79166667,1.73470833 7.79166667,2.125 C7.79166667,2.51529167 7.47433333,2.83333333 7.08333333,2.83333333 C6.69233333,2.83333333 6.375,2.51529167 6.375,2.125 C6.375,1.73470833 6.69233333,1.41666667 7.08333333,1.41666667 Z M4.95833333,1.41666667 C5.34933333,1.41666667 5.66666667,1.73470833 5.66666667,2.125 C5.66666667,2.51529167 5.34933333,2.83333333 4.95833333,2.83333333 C4.56733333,2.83333333 4.25,2.51529167 4.25,2.125 C4.25,1.73470833 4.56733333,1.41666667 4.95833333,1.41666667 Z M2.83333333,1.41666667 C3.22433333,1.41666667 3.54166667,1.73470833 3.54166667,2.125 C3.54166667,2.51529167 3.22433333,2.83333333 2.83333333,2.83333333 C2.44233333,2.83333333 2.125,2.51529167 2.125,2.125 C2.125,1.73470833 2.44233333,1.41666667 2.83333333,1.41666667 Z" id="Shape"></path>
                                        <path d="M0,4.25 L0,11.6875 C0,12.6642917 0.794041667,13.4583333 1.77083333,13.4583333 L15.2291667,13.4583333 C16.2059583,13.4583333 17,12.6642917 17,11.6875 L17,4.25 L0,4.25 Z M11.56,8.064375 L10.053375,9.31883333 L10.8148333,11.3510417 C10.869375,11.49625 10.822625,11.6612917 10.699375,11.7555 C10.574,11.8525417 10.4011667,11.8518333 10.2779167,11.7632917 L8.5,10.4946667 L6.72208333,11.7632917 C6.59458333,11.85325 6.423875,11.8504167 6.300625,11.7555 C6.177375,11.6605833 6.130625,11.49625 6.18516667,11.3510417 L6.946625,9.31883333 L5.44,8.064375 C5.32595833,7.96875 5.28275,7.81079167 5.33375,7.67125 C5.38475,7.531 5.51720833,7.4375 5.66666667,7.4375 L7.41766667,7.4375 L8.179125,5.6695 C8.23508333,5.53916667 8.36329167,5.45558333 8.50425,5.45558333 L8.50495833,5.45558333 C8.646625,5.45629167 8.774125,5.54058333 8.83008333,5.67091667 L9.58375,7.4375 L11.3333333,7.4375 C11.4827917,7.4375 11.61525,7.531 11.66625,7.67125 C11.71725,7.81079167 11.6740417,7.96875 11.56,8.064375 Z" id="Shape"></path>
                                    </g>
                                </g>
                                <g id="Invisible_Shape">
                                    <rect id="Rectangle" x="0" y="0" width="17" height="17"></rect>
                                </g>
                            </g>
                        </g>
                    </g>
                </g>
            </g>
        </g>
    </g>
</svg>