<?xml version="1.0" encoding="UTF-8"?>
<svg width="7px" height="4px" viewBox="0 0 7 4" version="1.1" xmlns="http://www.w3.org/2000/svg" xmlns:xlink="http://www.w3.org/1999/xlink">
    <!-- Generator: Sketch 55.1 (78136) - https://sketchapp.com -->
    <title>Dropdown</title>
    <desc>Created with Sketch.</desc>
    <g id="FunderMaps" stroke="none" stroke-width="1" fill="none" fill-rule="evenodd">
        <g id="Rapport-detail-uitgeklapt" transform="translate(-1123.000000, -575.000000)" fill="#7F8FA4">
            <g id="Adres" transform="translate(280.000000, 545.000000)">
                <path d="M845.001219,32.0004062 L848.502301,32.0004062 C848.777173,32.0004062 849,32.2321514 849,32.5 C849,32.7759181 848.785156,32.9995938 848.502301,32.9995938 L844.521426,32.9995938 C844.514849,32.9998637 844.508248,33 844.501625,33 C844.271523,33 844.077754,32.8505823 844.019748,32.6369079 C844.006892,32.5930982 844,32.5471075 844,32.5 C844,32.4844112 844.000686,32.4689892 844.002031,32.4537648 L844.002031,28.4976988 C844.002031,28.2228273 844.233776,28 844.501625,28 C844.777543,28 845.001219,28.2148438 845.001219,28.4976988 L845.001219,32.0004062 Z" id="Dropdown" transform="translate(846.500000, 30.500000) rotate(-45.000000) translate(-846.500000, -30.500000) "></path>
            </g>
        </g>
    </g>
</svg>