<?xml version="1.0" encoding="UTF-8"?>
<svg width="26px" height="26px" viewBox="0 0 26 26" version="1.1" xmlns="http://www.w3.org/2000/svg" xmlns:xlink="http://www.w3.org/1999/xlink">
    <!-- Generator: Sketch 54.1 (76490) - https://sketchapp.com -->
    <title>Fill 1</title>
    <desc>Created with Sketch.</desc>
    <g id="FunderMaps" stroke="none" stroke-width="1" fill="none" fill-rule="evenodd">
        <g id="Dashboard" transform="translate(-990.000000, -962.000000)" fill="#FFFFFF">
            <g id="Alle-rapporten-button" transform="translate(794.500000, 945.000000)">
                <path d="M208.5,17 C206.774731,17 205.151212,17.3385395 203.629394,18.015625 C202.107578,18.6927105 200.781094,19.619461 199.649903,20.7958992 C198.518712,21.9723375 197.627608,23.3518812 196.976562,24.9345695 C196.325517,26.517261 196,28.2057205 196,30 C196,31.7942795 196.325517,33.482739 196.976562,35.0654305 C197.627608,36.6481187 198.518712,38.0276625 199.649903,39.2041007 C200.781094,40.3805396 202.107578,41.3072882 203.629394,41.984375 C205.151212,42.6614618 206.774731,43 208.5,43 C210.225269,43 211.848787,42.6614618 213.370606,41.984375 C214.892422,41.3072882 216.218906,40.3805396 217.350097,39.2041007 C218.481287,38.0276625 219.372394,36.6481187 220.023437,35.0654305 C220.674481,33.482739 221,31.7942795 221,30 C221,28.2057205 220.674481,26.517261 220.023437,24.9345695 C219.372394,23.3518812 218.481287,21.9723375 217.350097,20.7958992 C216.218906,19.619461 214.892422,18.6927105 213.370606,18.015625 C211.848787,17.3385395 210.225269,17 208.5,17 Z M213.602538,30.7109375 L209.183594,35.306639 C209.037109,35.475912 208.854006,35.5605485 208.634278,35.5605485 C208.41455,35.5605485 208.231447,35.475912 208.084963,35.306639 C207.9222,35.1542953 207.840819,34.963868 207.840819,34.7353508 C207.840819,34.5068335 207.9222,34.3164063 208.084963,34.1640625 L211.307619,30.8125 L203.03125,30.8125 C202.819659,30.8125 202.636556,30.7320983 202.481934,30.5712883 C202.327309,30.4104815 202.25,30.2200543 202.25,30 C202.25,29.7799457 202.327309,29.5895185 202.481934,29.4287118 C202.636556,29.2679018 202.819659,29.1875 203.03125,29.1875 L211.307619,29.1875 L208.084963,25.8359375 C207.9222,25.6835937 207.840819,25.4931665 207.840819,25.2646492 C207.840819,25.036132 207.9222,24.8457047 208.084963,24.693361 C208.231447,24.524088 208.41455,24.4394515 208.634278,24.4394515 C208.854006,24.4394515 209.037109,24.524088 209.183594,24.693361 L213.602538,29.2890625 C213.700197,29.390625 213.7653,29.504882 213.79785,29.6318368 C213.830403,29.7587883 213.830403,29.8815082 213.79785,30 C213.830403,30.1184918 213.830403,30.2412118 213.79785,30.3681633 C213.7653,30.495118 213.700197,30.609375 213.602538,30.7109375 Z" id="Fill-1"></path>
            </g>
        </g>
    </g>
</svg>