<?xml version="1.0" encoding="UTF-8"?>
<svg width="13px" height="12px" viewBox="0 0 13 12" version="1.1" xmlns="http://www.w3.org/2000/svg" xmlns:xlink="http://www.w3.org/1999/xlink">
    <!-- Generator: Sketch 55.1 (78136) - https://sketchapp.com -->
    <title>Fill 1 Copy</title>
    <desc>Created with Sketch.</desc>
    <g id="FunderMaps" stroke="none" stroke-width="1" fill="none" fill-rule="evenodd">
        <g id="Upload-C" transform="translate(-765.000000, -1139.000000)" fill="#17A4EA">
            <g id="Buttons" transform="translate(750.000000, 1115.000000)">
                <g id="Vorige" transform="translate(0.000000, 8.000000)">
                    <path d="M27.0302727,23.047894 L22.6113289,27.6435955 C22.4648445,27.8128685 22.2817414,27.897505 22.0620133,27.897505 C21.8422852,27.897505 21.659182,27.8128685 21.5126977,27.6435955 C21.3499352,27.4912518 21.2685539,27.3008245 21.2685539,27.0723073 C21.2685539,26.84379 21.3499352,26.6533628 21.5126977,26.501019 L24.7353539,23.1494565 L16.4589852,23.1494565 C16.2473945,23.1494565 16.0642914,23.0690548 15.9096695,22.9082448 C15.7550445,22.747438 15.6777352,22.5570108 15.6777352,22.3369565 C15.6777352,22.1169023 15.7550445,21.926475 15.9096695,21.7656683 C16.0642914,21.6048583 16.2473945,21.5244565 16.4589852,21.5244565 L24.7353539,21.5244565 L21.5126977,18.172894 C21.3499352,18.0205503 21.2685539,17.830123 21.2685539,17.6016058 C21.2685539,17.3730885 21.3499352,17.1826613 21.5126977,17.0303175 C21.659182,16.8610445 21.8422852,16.776408 22.0620133,16.776408 C22.2817414,16.776408 22.4648445,16.8610445 22.6113289,17.0303175 L27.0302727,21.626019 C27.127932,21.7275815 27.1930352,21.8418385 27.2255852,21.9687933 C27.2581383,22.0957448 27.2581383,22.2184648 27.2255852,22.3369565 C27.2581383,22.4554483 27.2581383,22.5781683 27.2255852,22.7051198 C27.1930352,22.8320745 27.127932,22.9463315 27.0302727,23.047894 Z" id="Fill-1-Copy" transform="translate(21.463868, 22.336957) scale(-1, 1) translate(-21.463868, -22.336957) "></path>
                </g>
            </g>
        </g>
    </g>
</svg>