<?xml version="1.0" encoding="UTF-8"?>
<svg width="16px" height="16px" viewBox="0 0 16 16" version="1.1" xmlns="http://www.w3.org/2000/svg" xmlns:xlink="http://www.w3.org/1999/xlink">
    <!-- Generator: Sketch 55.1 (78136) - https://sketchapp.com -->
    <title>Schedule Icon</title>
    <desc>Created with Sketch.</desc>
    <g id="FunderMaps" stroke="none" stroke-width="1" fill="none" fill-rule="evenodd">
        <g id="Rapport-detail-uitgeklapt" transform="translate(-310.000000, -264.000000)" fill="#7F8FA4">
            <g id="Document-info" transform="translate(280.000000, 160.000000)">
                <g id="Datum" transform="translate(30.000000, 100.000000)">
                    <path d="M4,13 L6,13 L6,11 L4,11 L4,13 Z M4,16 L6,16 L6,14 L4,14 L4,16 Z M7,13 L9,13 L9,11 L7,11 L7,13 Z M7,16 L9,16 L9,14 L7,14 L7,16 Z M10,13 L12,13 L12,11 L10,11 L10,13 Z M10,16 L12,16 L12,14 L10,14 L10,16 Z M14,10 C14,9.448 13.552,9 13,9 L3,9 C2.448,9 2,9.448 2,10 L2,17 C2,17.552 2.448,18 3,18 L13,18 C13.552,18 14,17.552 14,17 L14,10 Z M14,20 L2,20 C0.896,20 0,19.105 0,18 L0,6 C0,4.895 0.896,4 2,4 L4,4 L4,5 C4,5.552 4.448,6 5,6 C5.552,6 6,5.552 6,5 L6,4 L10,4 L10,5 C10,5.552 10.448,6 11,6 C11.552,6 12,5.552 12,5 L12,4 L14,4 C15.105,4 16,4.895 16,6 L16,18 C16,19.105 15.105,20 14,20 L14,20 Z" id="Schedule-Icon"></path>
                </g>
            </g>
        </g>
    </g>
</svg>