<?xml version="1.0" encoding="UTF-8"?>
<svg width="12px" height="12px" viewBox="0 0 12 12" version="1.1" xmlns="http://www.w3.org/2000/svg" xmlns:xlink="http://www.w3.org/1999/xlink">
    <!-- Generator: Sketch 55.1 (78136) - https://sketchapp.com -->
    <title>Fill 1</title>
    <desc>Created with Sketch.</desc>
    <g id="FunderMaps" stroke="none" stroke-width="1" fill="none" fill-rule="evenodd">
        <g id="Upload-D" transform="translate(-1410.000000, -142.000000)" fill="#7F8FA4">
            <g id="Sluiten" transform="translate(1400.000000, 130.000000)">
                <path d="M20.3514416,18.9265167 C20.1895645,18.9265167 20.0596397,18.9755046 19.9616618,19.073482 C19.8636838,19.1714589 19.8146976,19.3056427 19.8146976,19.4760378 L19.8146976,22.3642171 C19.8146976,22.526092 19.7635794,22.6560162 19.661343,22.7539936 C19.5591065,22.8519705 19.4270498,22.9009583 19.2651781,22.9009583 L11.6357829,22.9009583 C11.4653878,22.9009583 11.331204,22.8519705 11.2332271,22.7539936 C11.1352497,22.6560162 11.0862624,22.526092 11.0862624,22.3642171 L11.0862624,14.7220464 C11.0862624,14.5601693 11.1352497,14.4302445 11.2332271,14.3322666 C11.331204,14.2342886 11.4653878,14.1853024 11.6357829,14.1853024 L14.5239622,14.1853024 C14.6858371,14.1853024 14.8157613,14.1341842 14.9137387,14.0319477 C15.0117156,13.9297113 15.0607035,13.7976546 15.0607035,13.6357829 C15.0607035,13.4739059 15.0117156,13.3418546 14.9137387,13.2396127 C14.8157613,13.1373762 14.6858371,13.0862635 14.5239622,13.0862635 L11.6357829,13.0862635 C11.1671971,13.0862635 10.7774244,13.2438712 10.4664538,13.5591029 C10.155483,13.8743346 10,14.261977 10,14.7220464 L10,22.3642171 C10,22.8242832 10.155483,23.2119261 10.4664538,23.5271565 C10.7774244,23.8423871 11.1671971,24 11.6357829,24 L19.2651781,24 C19.7252421,24 20.1128845,23.8423871 20.4281162,23.5271565 C20.7433479,23.2119261 20.9009611,22.8242832 20.9009611,22.3642171 L20.9009611,19.4760378 C20.9009611,19.3056427 20.8519694,19.1714589 20.7539969,19.073482 C20.6560189,18.9755046 20.5218357,18.9265167 20.3514416,18.9265167 Z M21.8338644,14.338657 L19.648562,12.1661356 C19.5378086,12.0553767 19.4100104,12 19.2651781,12 C19.1203405,12 18.9925476,12.0553767 18.8817888,12.1661356 L13.4249205,17.6102229 C13.3738023,17.6698636 13.3354639,17.7294988 13.3099043,17.7891394 C13.2843451,17.8487746 13.2715659,17.9169322 13.2715659,17.9936123 L13.2715659,20.1789136 C13.2715659,20.3407885 13.3205537,20.4728425 13.4185306,20.5750795 C13.516508,20.6773165 13.6464322,20.7284341 13.8083071,20.7284341 L15.9936123,20.7284341 C16.0788093,20.7284341 16.1490934,20.7135251 16.2044756,20.6837058 C16.2598523,20.6538866 16.317361,20.6134184 16.3769962,20.5622997 L21.8338644,15.1054303 C21.9361063,14.9946714 21.9872245,14.8668786 21.9872245,14.7220464 C21.9872245,14.5772087 21.9361063,14.4494159 21.8338644,14.338657 Z M15.7763585,19.6293925 L14.3578282,19.6293925 L14.3578282,18.2108606 L19.2651781,13.3035118 L20.6837073,14.7220464 L15.7763585,19.6293925 Z" id="Fill-1"></path>
            </g>
        </g>
    </g>
</svg>