<?xml version="1.0" encoding="UTF-8"?>
<svg width="16px" height="17px" viewBox="0 0 16 17" version="1.1" xmlns="http://www.w3.org/2000/svg" xmlns:xlink="http://www.w3.org/1999/xlink">
    <!-- Generator: Sketch 54.1 (76490) - https://sketchapp.com -->
    <title>Map-icon</title>
    <desc>Created with Sketch.</desc>
    <g id="FunderMaps" stroke="none" stroke-width="1" fill="none" fill-rule="evenodd">
        <g id="Alle-rapporten" transform="translate(-30.000000, -377.000000)">
            <g id="Screen-Structure">
                <g id="Left-Navigation-White" transform="translate(0.000000, 70.000000)">
                    <g id="Menu" transform="translate(0.000000, 15.000000)">
                        <g id="Menu-Items">
                            <g id="Map-icon" transform="translate(30.000000, 292.333333)">
                                <g id="Filled_Icons_1_" fill="#7F8FA4" fill-rule="nonzero">
                                    <g id="Group">
                                        <path d="M0.180666667,0.0413333333 C0.07,0.0986666667 0,0.212666667 0,0.337333333 L0,11.004 C0,11.112 0.052,11.2126667 0.139333333,11.2753333 L4.66666667,14.5093333 L4.66666667,3.02333333 L0.526666667,0.066 C0.425333333,-0.006 0.292,-0.0166666667 0.180666667,0.0413333333 Z" id="Path"></path>
                                        <path d="M13,7.33733333 C13.5973333,7.33733333 14.1593333,7.484 14.658,7.73866667 C14.6626667,7.71666667 14.6666667,7.69466667 14.6666667,7.67066667 L14.6666667,3.67066667 C14.6666667,3.56266667 14.6146667,3.462 14.5266667,3.39933333 L10,0.166666667 L10,8.90266667 C10.6633333,7.95866667 11.76,7.33733333 13,7.33733333 Z" id="Path"></path>
                                        <polygon id="Path" points="5.33333333 14.5093333 9.33333333 11.652 9.33333333 0.166666667 5.33333333 3.02333333"></polygon>
                                        <path d="M13,8.004 C11.346,8.004 10,9.35 10,11.004 C10,12.3386667 11.8926667,14.8726667 12.744,15.8846667 L12.744,15.8846667 C12.8073333,15.9606667 12.9006667,16.004 13,16.004 C13.0993333,16.004 13.1926667,15.9606667 13.256,15.8846667 C14.1186667,14.8366667 16,12.352 16,11.004 C16,9.35 14.654,8.004 13,8.004 Z M13,12.3373333 C12.264,12.3373333 11.6666667,11.7393333 11.6666667,11.004 C11.6666667,10.2693333 12.264,9.67066667 13,9.67066667 C13.7353333,9.67066667 14.3333333,10.2693333 14.3333333,11.004 C14.3333333,11.7393333 13.7353333,12.3373333 13,12.3373333 Z" id="Shape"></path>
                                    </g>
                                </g>
                                <g id="invisible_shape">
                                    <rect id="Rectangle" x="0" y="0" width="16" height="16"></rect>
                                </g>
                            </g>
                        </g>
                    </g>
                </g>
            </g>
        </g>
    </g>
</svg>