<?xml version="1.0" encoding="UTF-8"?>
<svg width="45px" height="46px" viewBox="0 0 45 46" version="1.1" xmlns="http://www.w3.org/2000/svg" xmlns:xlink="http://www.w3.org/1999/xlink">
    <!-- Generator: Sketch 55.1 (78136) - https://sketchapp.com -->
    <title>file check 2.2.3.1</title>
    <desc>Created with Sketch.</desc>
    <g id="FunderMaps" stroke="none" stroke-width="1" fill="none" fill-rule="evenodd">
        <g id="Upload-A" transform="translate(-1193.000000, -137.000000)">
            <g id="Progress-bar" transform="translate(544.000000, 105.000000)">
                <g id="step4" transform="translate(621.500000, 5.000000)">
                    <g id="file-check-2.2.3.1" transform="translate(27.500000, 27.500000)">
                        <g id="Filled_Icons" fill="#FFFFFF" fill-rule="nonzero">
                            <g id="Group">
                                <path d="M32.8125,20.625 C26.0925,20.625 20.625,26.090625 20.625,32.8125 C20.625,39.5325 26.0925,45 32.8125,45 C39.5325,45 45,39.5325 45,32.8125 C45,26.090625 39.5325,20.625 32.8125,20.625 Z M40.494375,29.8125 L32.814375,37.981875 C32.443125,38.37375 31.8375,38.3625 31.479375,38.01375 L25.993125,32.686875 C25.62375,32.330625 25.6125,31.7325 25.974375,31.363125 C26.3325,30.991875 26.926875,30.9825 27.3,31.3425 L32.101875,36.001875 L39.1275,28.52625 C39.48,28.149375 40.078125,28.130625 40.45125,28.486875 C40.828125,28.843125 40.846875,29.435625 40.494375,29.8125 Z" id="Shape"></path>
                                <path d="M18.75,32.8125 C18.75,25.374375 24.55875,19.284375 31.875,18.79875 L31.875,10.3125 C31.875,10.063125 31.775625,9.825 31.60125,9.650625 L22.22625,0.275625 C22.05,0.099375 21.81,0 21.5625,0 L0.9375,0 C0.42,0 0,0.42 0,0.9375 L0,40.3125 C0,40.83 0.42,41.25 0.9375,41.25 L21.590625,41.25 C19.815,38.896875 18.75,35.98125 18.75,32.8125 Z M20.625,1.875 L30,11.25 L20.625,11.25 L20.625,1.875 Z M6.5625,11.25 L15,11.25 C15.5175,11.25 15.9375,11.67 15.9375,12.1875 C15.9375,12.705 15.5175,13.125 15,13.125 L6.5625,13.125 C6.045,13.125 5.625,12.705 5.625,12.1875 C5.625,11.67 6.045,11.25 6.5625,11.25 Z M6.5625,16.875 L21.5625,16.875 C22.08,16.875 22.5,17.295 22.5,17.8125 C22.5,18.33 22.08,18.75 21.5625,18.75 L6.5625,18.75 C6.045,18.75 5.625,18.33 5.625,17.8125 C5.625,17.295 6.045,16.875 6.5625,16.875 Z M15.9375,30 L6.5625,30 C6.045,30 5.625,29.58 5.625,29.0625 C5.625,28.545 6.045,28.125 6.5625,28.125 L15.9375,28.125 C16.455,28.125 16.875,28.545 16.875,29.0625 C16.875,29.58 16.455,30 15.9375,30 Z M17.8125,24.375 L6.5625,24.375 C6.045,24.375 5.625,23.955 5.625,23.4375 C5.625,22.92 6.045,22.5 6.5625,22.5 L17.8125,22.5 C18.33,22.5 18.75,22.92 18.75,23.4375 C18.75,23.955 18.33,24.375 17.8125,24.375 Z" id="Shape"></path>
                            </g>
                        </g>
                        <g id="Invisible_Shape">
                            <rect id="Rectangle" x="0" y="0" width="45" height="45"></rect>
                        </g>
                    </g>
                </g>
            </g>
        </g>
    </g>
</svg>