<?xml version="1.0" encoding="UTF-8"?>
<svg width="46px" height="44px" viewBox="0 0 46 44" version="1.1" xmlns="http://www.w3.org/2000/svg" xmlns:xlink="http://www.w3.org/1999/xlink">
    <!-- Generator: Sketch 55.1 (78136) - https://sketchapp.com -->
    <title>house information.2.3.1</title>
    <desc>Created with Sketch.</desc>
    <g id="FunderMaps" stroke="none" stroke-width="1" fill="none" fill-rule="evenodd">
        <g id="Upload-A" transform="translate(-982.000000, -139.000000)">
            <g id="Progress-bar" transform="translate(544.000000, 105.000000)">
                <g id="step3" transform="translate(411.000000, 5.000000)">
                    <g id="house-information.2.3.1" transform="translate(27.500000, 27.500000)">
                        <g id="Filled_Icons" transform="translate(0.000000, 1.875000)" fill="#FFFFFF" fill-rule="nonzero">
                            <g id="Group">
                                <path d="M37.5,10.824375 L37.5,2.8125 C37.5,2.295 37.08,1.875 36.5625,1.875 L27.699375,1.875 L37.5,10.824375 Z" id="Path"></path>
                                <path d="M43.430625,21.316875 L22.5,2.206875 L1.569375,21.316875 C1.18875,21.665625 0.594375,21.64125 0.245625,21.255 C-0.105,20.8725 -0.076875,20.28 0.305625,19.933125 L21.868125,0.245625 C22.224375,-0.0825 22.77375,-0.0825 23.131875,0.245625 L44.694375,19.933125 C45.076875,20.28 45.105,20.874375 44.754375,21.255 C44.4075,21.6375 43.813125,21.669375 43.430625,21.316875 Z" id="Path"></path>
                            </g>
                            <path d="M22.5,32.8125 C22.5,26.0925 27.9675,20.625 34.6875,20.625 C36.34875,20.625 37.93125,20.960625 39.375,21.56625 L39.375,20.1525 L22.5,4.7475 L5.625,20.1525 L5.625,42.1875 C5.625,42.705 6.045,43.125 6.5625,43.125 L28.2225,43.125 C24.79125,40.966875 22.5,37.156875 22.5,32.8125 Z M20.625,14.0625 L20.625,12.1875 C20.625,11.67 21.045,11.25 21.5625,11.25 L23.4375,11.25 C23.955,11.25 24.375,11.67 24.375,12.1875 L24.375,14.0625 C24.375,14.58 23.955,15 23.4375,15 L21.5625,15 C21.045,15 20.625,14.58 20.625,14.0625 Z" id="Shape"></path>
                            <path d="M34.6875,22.5 C29.000625,22.5 24.375,27.129375 24.375,32.8125 C24.375,38.499375 29.000625,43.125 34.6875,43.125 C40.374375,43.125 45,38.499375 45,32.8125 C45,27.129375 40.374375,22.5 34.6875,22.5 Z M35.625,38.4375 C35.625,38.955 35.205,39.375 34.6875,39.375 C34.17,39.375 33.75,38.955 33.75,38.4375 L33.75,30.9375 C33.75,30.42 34.17,30 34.6875,30 C35.205,30 35.625,30.42 35.625,30.9375 L35.625,38.4375 Z M34.6875,28.125 C34.168125,28.125 33.75,27.705 33.75,27.1875 C33.75,26.67 34.168125,26.25 34.6875,26.25 C35.203125,26.25 35.625,26.67 35.625,27.1875 C35.625,27.705 35.203125,28.125 34.6875,28.125 Z" id="Shape"></path>
                        </g>
                        <g id="invisible_shape">
                            <rect id="Rectangle" x="0" y="0" width="45" height="45"></rect>
                        </g>
                    </g>
                </g>
            </g>
        </g>
    </g>
</svg>