<?xml version="1.0" encoding="UTF-8"?>
<svg width="34px" height="45px" viewBox="0 0 34 45" version="1.1" xmlns="http://www.w3.org/2000/svg" xmlns:xlink="http://www.w3.org/1999/xlink">
    <!-- Generator: Sketch 55.1 (78136) - https://sketchapp.com -->
    <title>file new 2.2.3.1</title>
    <desc>Created with Sketch.</desc>
    <g id="FunderMaps" stroke="none" stroke-width="1" fill="none" fill-rule="evenodd">
        <g id="Upload-A" transform="translate(-582.000000, -137.000000)">
            <g id="Progress-bar" transform="translate(544.000000, 105.000000)">
                <g id="step1">
                    <g id="file-new-2.2.3.1" transform="translate(32.500000, 32.500000)">
                        <g id="Filled_Icons" transform="translate(5.539773, 0.000000)" fill="#FFFFFF" fill-rule="nonzero">
                            <path d="M32.9690341,11.3509943 L21.8894886,0.271448864 C21.7159091,0.0978693182 21.4795455,0 21.2357955,0 L0.923295455,0 C0.413636364,0 0,0.413636364 0,0.923295455 L0,43.3948864 C0,43.9045455 0.413636364,44.3181818 0.923295455,44.3181818 L32.3153409,44.3181818 C32.825,44.3181818 33.2386364,43.9045455 33.2386364,43.3948864 L33.2386364,12.0028409 C33.2386364,11.7572443 33.140767,11.5227273 32.9690341,11.3509943 Z M8.30965909,12.9261364 L16.6193182,12.9261364 C17.1289773,12.9261364 17.5426136,13.3397727 17.5426136,13.8494318 C17.5426136,14.3590909 17.1289773,14.7727273 16.6193182,14.7727273 L8.30965909,14.7727273 C7.8,14.7727273 7.38636364,14.3590909 7.38636364,13.8494318 C7.38636364,13.3397727 7.8,12.9261364 8.30965909,12.9261364 Z M24.9289773,36.9318182 L8.30965909,36.9318182 C7.8,36.9318182 7.38636364,36.5181818 7.38636364,36.0085227 C7.38636364,35.4988636 7.8,35.0852273 8.30965909,35.0852273 L24.9289773,35.0852273 C25.4386364,35.0852273 25.8522727,35.4988636 25.8522727,36.0085227 C25.8522727,36.5181818 25.4386364,36.9318182 24.9289773,36.9318182 Z M24.9289773,31.3920455 L8.30965909,31.3920455 C7.8,31.3920455 7.38636364,30.9784091 7.38636364,30.46875 C7.38636364,29.9590909 7.8,29.5454545 8.30965909,29.5454545 L24.9289773,29.5454545 C25.4386364,29.5454545 25.8522727,29.9590909 25.8522727,30.46875 C25.8522727,30.9784091 25.4386364,31.3920455 24.9289773,31.3920455 Z M24.9289773,25.8522727 L8.30965909,25.8522727 C7.8,25.8522727 7.38636364,25.4386364 7.38636364,24.9289773 C7.38636364,24.4193182 7.8,24.0056818 8.30965909,24.0056818 L24.9289773,24.0056818 C25.4386364,24.0056818 25.8522727,24.4193182 25.8522727,24.9289773 C25.8522727,25.4386364 25.4386364,25.8522727 24.9289773,25.8522727 Z M24.9289773,20.3125 L8.30965909,20.3125 C7.8,20.3125 7.38636364,19.8988636 7.38636364,19.3892045 C7.38636364,18.8795455 7.8,18.4659091 8.30965909,18.4659091 L24.9289773,18.4659091 C25.4386364,18.4659091 25.8522727,18.8795455 25.8522727,19.3892045 C25.8522727,19.8988636 25.4386364,20.3125 24.9289773,20.3125 Z M20.3125,12.9261364 L20.3125,1.84659091 L31.3920455,12.9261364 L20.3125,12.9261364 Z" id="Shape"></path>
                        </g>
                        <g id="Invisible_Shape"></g>
                    </g>
                </g>
            </g>
        </g>
    </g>
</svg>