<?xml version="1.0" encoding="UTF-8"?>
<svg width="16px" height="16px" viewBox="0 0 16 16" version="1.1" xmlns="http://www.w3.org/2000/svg" xmlns:xlink="http://www.w3.org/1999/xlink">
    <!-- Generator: Sketch 54.1 (76490) - https://sketchapp.com -->
    <title>Follow Icon</title>
    <desc>Created with Sketch.</desc>
    <g id="FunderMaps" stroke="none" stroke-width="1" fill="none" fill-rule="evenodd">
        <g id="Account-instellingen-Copy" transform="translate(-985.000000, -395.000000)" fill="#CED0DA">
            <g id="Teamleden" transform="translate(880.000000, 160.000000)">
                <g id="Person" transform="translate(20.000000, 201.000000)">
                    <g id="Bewerk-button" transform="translate(72.000000, 27.000000)">
                        <path d="M28,18 L27,18 L27,17 C27,16.448 26.552,16 26,16 C25.448,16 25,16.448 25,17 L25,18 L24,18 C23.448,18 23,18.448 23,19 C23,19.552 23.448,20 24,20 L25,20 L25,21 C25,21.552 25.448,22 26,22 C26.552,22 27,21.552 27,21 L27,20 L28,20 C28.552,20 29,19.552 29,19 C29,18.448 28.552,18 28,18 M19,9 C20.657,9 22,10.791 22,13 C22,15.209 20.657,17 19,17 C17.343,17 16,15.209 16,13 C16,10.791 17.343,9 19,9 M21.675,20.875 C21.464,20.951 21.238,21 21,21 L17,21 C15.895,21 15,20.104 15,19 C15,18.39 15.279,17.851 15.709,17.484 C16.59,18.416 17.733,19 19,19 C19.74,19 20.429,18.782 21.057,18.431 C21.269,17.332 22.082,16.459 23.138,16.141 C23.249,15.783 23.419,15.451 23.644,15.163 C23.869,14.492 24,13.767 24,13 C24,9.686 21.761,7 19,7 C16.239,7 14,9.686 14,13 C14,14.022 14.233,14.969 14.608,15.811 C13.637,16.541 13,17.692 13,19 C13,21.209 14.791,23 17,23 L21,23 C21.854,23 22.642,22.727 23.292,22.271 C23.231,22.141 23.192,22.001 23.148,21.862 C22.56,21.687 22.052,21.341 21.675,20.875" id="Follow-Icon"></path>
                    </g>
                </g>
            </g>
        </g>
    </g>
</svg>