<?xml version="1.0" encoding="UTF-8"?>
<svg width="17px" height="17px" viewBox="0 0 17 17" version="1.1" xmlns="http://www.w3.org/2000/svg" xmlns:xlink="http://www.w3.org/1999/xlink">
    <!-- Generator: Sketch 54.1 (76490) - https://sketchapp.com -->
    <title>tools wrench screwdriver.2.3.1</title>
    <desc>Created with Sketch.</desc>
    <g id="FunderMaps" stroke="none" stroke-width="1" fill="none" fill-rule="evenodd">
        <g id="Alle-rapporten" transform="translate(-30.000000, -257.000000)">
            <g id="Screen-Structure">
                <g id="Left-Navigation-White" transform="translate(0.000000, 70.000000)">
                    <g id="Menu" transform="translate(0.000000, 15.000000)">
                        <g id="Menu-Items">
                            <g id="tools-wrench-screwdriver.2.3.1" transform="translate(29.666667, 172.666667)">
                                <g id="Filled_Icons" fill="#7F8FA4" fill-rule="nonzero">
                                    <g id="Group">
                                        <g id="Path">
                                            <path d="M4.59933333,5.864 L6.99866667,8.258 L8.88733333,6.37 L6.48466667,3.96666667 C6.84933333,2.888 6.57733333,1.702 5.76333333,0.888 C4.908,0.0333333333 3.62266667,-0.218 2.52133333,0.247333333 C2.42266667,0.288666667 2.34933333,0.376 2.326,0.480666667 C2.302,0.585333333 2.33,0.695333333 2.40133333,0.775333333 L3.564,2.08666667 L3.564,2.96 L2.69466667,2.96 L1.414,1.77266667 C1.334,1.69933333 1.22466667,1.67 1.11733333,1.69133333 C1.01133333,1.71533333 0.922666667,1.788 0.88,1.888 C0.406,3.00933333 0.657333333,4.292 1.52066667,5.15466667 C2.31466667,5.94933333 3.53666667,6.22333333 4.59933333,5.864 Z"></path>
                                            <path d="M12.5886667,10.0706667 L10.3013333,7.78333333 L8.414,9.67133333 L10.7033333,11.956 C10.3393333,13.034 10.6106667,14.2213333 11.4246667,15.0353333 C11.9906667,15.6006667 12.7433333,15.9113333 13.544,15.9113333 C13.9493333,15.9113333 14.344,15.832 14.7166667,15.674 C14.818,15.6313333 14.892,15.542 14.914,15.434 C14.9353333,15.3266667 14.9033333,15.2146667 14.8273333,15.136 L13.564,13.8266667 L13.564,12.96 L14.434,12.96 L15.7746667,14.1973333 C15.854,14.2713333 15.9633333,14.3006667 16.0706667,14.2786667 C16.1766667,14.2566667 16.2653333,14.1826667 16.3073333,14.0826667 C16.786,12.9513333 16.5346667,11.6593333 15.6666667,10.792 C14.8686667,9.99333333 13.6493333,9.71333333 12.5886667,10.0706667 Z"></path>
                                        </g>
                                        <path d="M16.5693333,1.102 L15.5693333,0.102 C15.4546667,-0.012 15.2746667,-0.028 15.1433333,0.064 L12.7826667,1.70333333 C12.7013333,1.76 12.65,1.84933333 12.6406667,1.948 C12.632,2.046 12.6673333,2.14333333 12.7373333,2.21333333 L13.3626667,2.83733333 L6.71533333,9.48466667 L5.53666667,8.30666667 C5.40666667,8.176 5.19533333,8.176 5.06533333,8.30666667 C4.93533333,8.436 4.93533333,8.64733333 5.06533333,8.778 L5.536,9.24866667 L1.39066667,13.3953333 C1.13866667,13.6473333 1,13.982 1,14.3373333 C1,14.694 1.13866667,15.0293333 1.39,15.2793333 C1.64133333,15.532 1.976,15.6706667 2.33266667,15.6706667 C2.68933333,15.6706667 3.024,15.532 3.276,15.28 L7.42066667,11.1346667 L7.892,11.606 C7.95733333,11.6713333 8.04266667,11.7033333 8.12733333,11.7033333 C8.21266667,11.7033333 8.298,11.6713333 8.36333333,11.606 C8.49333333,11.4753333 8.49333333,11.2646667 8.36333333,11.1346667 L7.18533333,9.95666667 L13.8333333,3.30866667 L14.3866667,3.86266667 C14.4493333,3.92533333 14.5346667,3.96066667 14.6226667,3.96066667 C14.6306667,3.96066667 14.638,3.96066667 14.6466667,3.95933333 C14.7433333,3.95333333 14.8313333,3.90466667 14.8893333,3.82666667 L16.6,1.53733333 C16.6993333,1.404 16.686,1.21933333 16.5693333,1.102 Z" id="Path"></path>
                                    </g>
                                </g>
                                <g id="invisible_shape" transform="translate(0.666667, 0.000000)">
                                    <rect id="Rectangle" x="0" y="0" width="16" height="16"></rect>
                                </g>
                            </g>
                        </g>
                    </g>
                </g>
            </g>
        </g>
    </g>
</svg>